<svg t="1617099354289" class="icon" viewBox="0 0 1024 1024" version="1.1" xmlns="http://www.w3.org/2000/svg" p-id="3305" width="400" height="400"><path d="M742.4 716.8a25.6 25.6 0 0 1 25.6 25.6v25.6h76.8a25.6 25.6 0 0 1 25.6 25.6v25.6a25.6 25.6 0 0 1-25.6 25.6H768a25.6 25.6 0 0 1-25.6 25.6h-102.4a25.6 25.6 0 0 1-25.6-25.6H179.2A25.6 25.6 0 0 1 153.6 819.2v-25.6a25.6 25.6 0 0 1 25.6-25.6H614.4v-25.6a25.6 25.6 0 0 1 25.6-25.6h102.4z m-563.2-128A25.6 25.6 0 0 1 153.6 563.2v-25.6a25.6 25.6 0 0 1 25.6-25.6H256v-25.6a25.6 25.6 0 0 1 25.6-25.6h102.4a25.6 25.6 0 0 1 25.6 25.6v25.6h435.2a25.6 25.6 0 0 1 25.6 25.6v25.6a25.6 25.6 0 0 1-25.6 25.6H409.6a25.6 25.6 0 0 1-25.6 25.6h-102.4a25.6 25.6 0 0 1-25.6-25.6H179.2z m563.2-384a25.6 25.6 0 0 1 25.6 25.6V256h76.8a25.6 25.6 0 0 1 25.6 25.6V307.2a25.6 25.6 0 0 1-25.6 25.6H768a25.6 25.6 0 0 1-25.6 25.6h-102.4a25.6 25.6 0 0 1-25.6-25.6H179.2A25.6 25.6 0 0 1 153.6 307.2v-25.6a25.6 25.6 0 0 1 25.6-25.6H614.4v-25.6a25.6 25.6 0 0 1 25.6-25.6h102.4z" fill="#FFFFFF" p-id="3306"></path></svg>