<svg t="1617099343806" class="icon" viewBox="0 0 1024 1024" version="1.1" xmlns="http://www.w3.org/2000/svg" p-id="3160" width="400" height="400"><path d="M153.6 256m25.6 0l665.6 0q25.6 0 25.6 25.6l0 25.6q0 25.6-25.6 25.6l-665.6 0q-25.6 0-25.6-25.6l0-25.6q0-25.6 25.6-25.6Z" fill="#FFFFFF" p-id="3161"></path><path d="M153.6 512m25.6 0l665.6 0q25.6 0 25.6 25.6l0 25.6q0 25.6-25.6 25.6l-665.6 0q-25.6 0-25.6-25.6l0-25.6q0-25.6 25.6-25.6Z" fill="#0964FF" p-id="3162"></path><path d="M153.6 768m25.6 0l665.6 0q25.6 0 25.6 25.6l0 25.6q0 25.6-25.6 25.6l-665.6 0q-25.6 0-25.6-25.6l0-25.6q0-25.6 25.6-25.6Z" fill="#FFFFFF" p-id="3163"></path><path d="M614.4 204.8m25.6 0l102.4 0q25.6 0 25.6 25.6l0 102.4q0 25.6-25.6 25.6l-102.4 0q-25.6 0-25.6-25.6l0-102.4q0-25.6 25.6-25.6Z" fill="#FFFFFF" p-id="3164"></path><path d="M614.4 716.8m25.6 0l102.4 0q25.6 0 25.6 25.6l0 102.4q0 25.6-25.6 25.6l-102.4 0q-25.6 0-25.6-25.6l0-102.4q0-25.6 25.6-25.6Z" fill="#FFFFFF" p-id="3165"></path><path d="M256 460.8m25.6 0l102.4 0q25.6 0 25.6 25.6l0 102.4q0 25.6-25.6 25.6l-102.4 0q-25.6 0-25.6-25.6l0-102.4q0-25.6 25.6-25.6Z" fill="#0964FF" p-id="3166"></path></svg>