<svg t="1617099312449" class="icon" viewBox="0 0 1024 1024" version="1.1" xmlns="http://www.w3.org/2000/svg" p-id="2595" width="400" height="400"><path d="M896 166.4c33.1264 0 60.416 25.1904 63.6928 57.4464l0.3072 6.5536V460.8h-76.8V243.2H140.8v537.6H563.2v76.8H128a64 64 0 0 1-63.6928-57.4464L64 793.6v-563.2c0-33.1264 25.1904-60.416 57.4464-63.6928L128 166.4h768z" fill="#FFFFFF" p-id="2596"></path><path d="M908.1344 271.2576l26.9312 71.8848L512 501.8112 88.9344 343.1424l26.9312-71.8848L512 419.7376z" fill="#FFFFFF" p-id="2597"></path><path d="M768 588.8a76.8 76.8 0 1 0 0 153.6 76.8 76.8 0 0 0 0-153.6z m0 51.2a25.6 25.6 0 1 1 0 51.2 25.6 25.6 0 0 1 0-51.2z" fill="#FFFFFF" p-id="2598"></path></svg>