<svg t="1617099291988" class="icon" viewBox="0 0 1024 1024" version="1.1" xmlns="http://www.w3.org/2000/svg" p-id="2313" width="400" height="400"><path d="M548.1984 138.5984L819.2 409.6v460.8a51.2 51.2 0 0 1-51.2 51.2H256a51.2 51.2 0 0 1-51.2-51.2V409.6l271.0016-271.0016a51.2 51.2 0 0 1 72.3968 0zM512 210.9952L281.6 441.344v403.456h460.8V441.3952l-230.4-230.4z" fill="#FFFFFF" p-id="2314"></path><path d="M512 358.4a102.4 102.4 0 1 0 0 204.8 102.4 102.4 0 0 0 0-204.8z m0 51.2a51.2 51.2 0 1 1 0 102.4 51.2 51.2 0 0 1 0-102.4z" fill="#0964FF" p-id="2315"></path></svg>