<svg t="1617674045984" class="icon" viewBox="0 0 1024 1024" version="1.1" xmlns="http://www.w3.org/2000/svg" p-id="3783" width="400" height="400"><path d="M819.2 819.2v51.2H204.8v-51.2h614.4z m51.2-716.8a51.2 51.2 0 0 1 51.2 51.2v563.2a51.2 51.2 0 0 1-51.2 51.2H153.6a51.2 51.2 0 0 1-51.2-51.2V153.6a51.2 51.2 0 0 1 51.2-51.2h716.8z m-25.6 76.8h-665.6v512h665.6v-512z" fill="#FFFFFF" p-id="3784"></path><path d="M398.2336 284.4672L512 364.032l113.7664-79.5648h113.7664l-170.6496 113.7664h113.7664v56.832h-113.7664V512h113.7664v56.8832h-113.7664v56.8832H455.168v-56.8832H341.3504V512h113.7664V455.1168H341.3504V398.2336h113.7664L284.4672 284.4672h113.7664z" fill="#0964FF" p-id="3785"></path></svg>