<svg t="1617343739952" class="icon" viewBox="0 0 1024 1024" version="1.1" xmlns="http://www.w3.org/2000/svg" p-id="7257" width="400" height="400"><path d="M819.2 460.8l8.3968 16.896a25.6 25.6 0 0 0 31.0272 12.8512l17.9712-5.9904 72.448 72.448-5.9904 17.92a25.6 25.6 0 0 0 12.8 30.976L972.8 614.4v102.4l-16.896 8.448a25.6 25.6 0 0 0-12.9024 31.0272l6.0416 17.92-72.448 72.448-17.92-6.0416a25.6 25.6 0 0 0-31.0272 12.8512L819.2 870.4h-102.4l-8.4992-16.9472a25.6 25.6 0 0 0-30.976-12.8l-17.92 5.9904-72.448-72.448 5.9904-17.92a25.6 25.6 0 0 0-12.8-31.0272L563.2 716.8v-102.4l16.896-8.448a25.6 25.6 0 0 0 12.8512-30.976l-5.9904-17.9712 72.448-72.448 17.92 5.9904a25.6 25.6 0 0 0 30.976-12.8L716.8 460.8h102.4z m76.8-294.4c33.1264 0 60.416 25.1904 63.6928 57.4464l0.3072 6.5536V460.8h-76.8V362.5984L512 501.8112 140.8 362.5984v418.2016H563.2v76.8H128a64 64 0 0 1-63.6928-57.4464L64 793.6v-563.2c0-33.1264 25.1904-60.416 57.4464-63.6928L128 166.4h768zM788.8896 512h-41.8304l-0.4096 0.6144a76.8512 76.8512 0 0 1-71.7824 29.696l-0.7168-0.1536-29.5936 29.5936 0.2048 0.768a76.8512 76.8512 0 0 1-29.7984 71.7824l-0.5632 0.3584v41.8304l0.5632 0.4096c22.1696 16.6912 33.6384 44.288 29.7984 71.7824l-0.2048 0.7168 29.5424 29.5424 0.6656-0.1024c25.0368-3.5328 50.1248 5.632 67.072 23.9616l5.2736 6.4h41.728l0.4096-0.5632a76.8512 76.8512 0 0 1 71.936-29.7984l0.6656 0.1024 29.4912-29.4912-0.1024-0.6656c-3.5328-25.088 5.632-50.176 24.0128-67.072l6.3488-5.2736v-41.728l-0.6144-0.4608a76.9024 76.9024 0 0 1-30.4128-64.3584l0.768-8.192-29.5424-29.5424-0.768 0.2048a76.9024 76.9024 0 0 1-67.0208-24.064l-5.12-6.2976z m94.3104-268.8H140.8v37.376L512 419.7376l371.2-139.2128V243.2z" fill="#FFFFFF" p-id="7258"></path><path d="M768 588.8a76.8 76.8 0 1 0 0 153.6 76.8 76.8 0 0 0 0-153.6z m0 51.2a25.6 25.6 0 1 1 0 51.2 25.6 25.6 0 0 1 0-51.2z" fill="#0964FF" p-id="7259"></path></svg>