<svg t="1635156167361" class="icon" viewBox="0 0 1024 1024" version="1.1" xmlns="http://www.w3.org/2000/svg" p-id="759" width="200" height="200"><path d="M507.264 648.277333v64H317.610667v-64h189.653333z m167.04-146.944v64h-356.693333v-64h356.693333z m0-146.944v64h-356.693333v-64h356.693333z" fill="#0964FF" p-id="760"></path><path d="M335.189333 169.472l0.042667 57.941333 0.384 6.101334H260.693333a21.333333 21.333333 0 0 0-20.992 17.493333l-0.341333 3.84v557.013333a21.333333 21.333333 0 0 0 17.493333 20.992l3.84 0.341334h470.528a21.333333 21.333333 0 0 0 20.992-17.493334l0.341334-3.84V254.805333a21.333333 21.333333 0 0 0-17.493334-20.992l-3.84-0.341333-74.88 0.042667 0.256-3.029334 0.085334-3.072V169.472h74.538666a85.333333 85.333333 0 0 1 85.333334 85.333333v557.056a85.333333 85.333333 0 0 1-85.333334 85.333334H260.693333a85.333333 85.333333 0 0 1-85.333333-85.333334V254.805333a85.333333 85.333333 0 0 1 85.333333-85.333333h74.496z m50.133334-31.530667c13.013333 0 23.936 8.618667 27.52 20.437334l0.896 4.053333 0.298666 4.266667V227.413333l-0.298666 4.266667a28.714667 28.714667 0 0 1-20.138667 23.253333l-4.053333 0.896-4.266667 0.341334-4.224-0.341334a28.8 28.8 0 0 1-23.296-20.138666l-0.853333-4.053334-0.341334-4.266666V166.741333l0.298667-4.266666a28.714667 28.714667 0 0 1 28.458667-24.490667z m221.312 0c13.013333 0 23.978667 8.618667 27.52 20.437334l0.896 4.053333 0.298666 4.266667V227.413333l-0.298666 4.266667a28.714667 28.714667 0 0 1-20.096 23.253333l-4.096 0.896-4.266667 0.341334-4.224-0.341334a28.8 28.8 0 0 1-23.253333-20.138666l-0.938667-4.053334-0.298667-4.266666V166.741333l0.298667-4.266666a28.714667 28.714667 0 0 1 28.458667-24.490667z m-50.133334 31.573334l0.042667 57.898666 0.384 6.101334h-121.898667l0.256-3.029334 0.085334-3.072V169.472h121.173333z" fill="#FFFFFF" p-id="761"></path></svg>