<svg t="1617673908188" class="icon" viewBox="0 0 1024 1024" version="1.1" xmlns="http://www.w3.org/2000/svg" p-id="3077" width="400" height="400"><path d="M512 102.4l358.4 102.4v393.1648a204.8 204.8 0 0 1-103.168 177.8176L512 921.6l-255.232-145.8176A204.8 204.8 0 0 1 153.6 597.9648V204.8l358.4-102.4z m0 79.872L230.4 262.7072v335.2576a128 128 0 0 0 56.7296 106.2912l7.7824 4.8128L512 833.1264l217.088-124.0576a128 128 0 0 0 64.2048-101.9904l0.3072-9.1136V262.656L512 182.272z" fill="#FFFFFF" p-id="3078"></path><path d="M345.344 435.456l117.6576 117.6576 189.3888-189.3376 54.272 54.272-243.6096 243.712-172.032-172.032z" fill="#0964FF" p-id="3079"></path></svg>