<svg t="1617343623711" class="icon" viewBox="0 0 1024 1024" version="1.1" xmlns="http://www.w3.org/2000/svg" p-id="6265" width="400" height="400"><path d="M495.3088 80.384a217.6 217.6 0 1 1-57.088 329.3184L246.784 520.192l-38.4-66.5088 191.232-110.4896a217.6512 217.6512 0 0 1 95.744-262.8608z m230.7584 118.016a140.8 140.8 0 1 0-243.9168 140.8 140.8 140.8 0 0 0 243.9168-140.8z" fill="#0964FF" p-id="6266"></path><path d="M153.6 654.2336h102.4v256H153.6zM358.4 551.8336h102.4v358.4H358.4zM563.2 603.0336h102.4v307.2h-102.4zM768 500.6336h102.4v409.6h-102.4z" fill="#FFFFFF" p-id="6267"></path></svg>