<svg t="1617673945048" class="icon" viewBox="0 0 1024 1024" version="1.1" xmlns="http://www.w3.org/2000/svg" p-id="3218" width="400" height="400"><path d="M688.6912 460.8a153.6 153.6 0 0 1 147.712 111.4112l66.56 232.96A51.2 51.2 0 0 1 853.7088 870.4H170.2912a51.2 51.2 0 0 1-49.2544-65.28l66.56-232.96A153.6 153.6 0 0 1 335.3088 460.8h353.3824z m0 76.8H335.36a76.8 76.8 0 0 0-71.5264 48.7936l-2.3552 6.912L204.1856 793.6h615.5776l-57.1904-200.2944a76.8 76.8 0 0 0-66.56-55.3472l-7.3216-0.3584zM512 102.4a153.6 153.6 0 1 1 0 307.2 153.6 153.6 0 0 1 0-307.2z m0 76.8a76.8 76.8 0 1 0 0 153.6 76.8 76.8 0 0 0 0-153.6z" fill="#FFFFFF" p-id="3219"></path><path d="M531.9168 601.6l13.9776 32.512-33.28 57.7536-34.304-57.9584 14.336-32.3072h39.2704z" fill="#0964FF" p-id="3220"></path></svg>