<svg t="1617343465153" class="icon" viewBox="0 0 1024 1024" version="1.1" xmlns="http://www.w3.org/2000/svg" p-id="5419" width="400" height="400"><path d="M896 166.4c33.1264 0 60.416 25.1904 63.6928 57.4464l0.3072 6.5536V460.8h-76.8V362.5984L512 501.8112 140.8 362.5984v418.2016H563.2v76.8H128a64 64 0 0 1-63.6928-57.4464L64 793.6v-563.2c0-33.1264 25.1904-60.416 57.4464-63.6928L128 166.4h768z m-12.8 76.8H140.8v37.376L512 419.7376l371.2-139.2128V243.2z" fill="#FFFFFF" p-id="5420"></path><path d="M947.2 793.6v51.2h-307.2v-51.2h307.2z m0-128v51.2h-307.2v-51.2h307.2z m0-128v51.2h-307.2v-51.2h307.2z" fill="#0964FF" p-id="5421"></path></svg>