<svg t="1617674103132" class="icon" viewBox="0 0 1024 1024" version="1.1" xmlns="http://www.w3.org/2000/svg" p-id="4065" width="400" height="400"><path d="M204.8 870.4v-51.2h256v-51.2H153.6a51.2 51.2 0 0 1-51.2-51.2V204.8a51.2 51.2 0 0 1 51.2-51.2h716.8a51.2 51.2 0 0 1 51.2 51.2v512a51.2 51.2 0 0 1-51.2 51.2h-307.2v51.2h256v51.2H204.8zM844.8 230.4h-665.6v460.8h665.6v-460.8z" fill="#FFFFFF" p-id="4066"></path><path d="M419.4816 351.5392l144.7936 144.7936 122.88-122.8288 54.272 54.272-177.152 177.152-144.8448-144.7936-112.4352 112.4864-54.3232-54.272z" fill="#0964FF" p-id="4067"></path></svg>