<svg t="1617343718549" class="icon" viewBox="0 0 1024 1024" version="1.1" xmlns="http://www.w3.org/2000/svg" p-id="7114" width="400" height="400"><path d="M806.0928 115.2H218.0608l-10.0352 7.2704C113.6128 190.464 64 255.8464 64 322.3552 64 420.9664 150.784 499.2 256 499.2l11.9808-0.3584a201.216 201.216 0 0 0 107.3152-37.888l8.6528-6.7584 8.7552 6.8096A202.3424 202.3424 0 0 0 512 499.2l11.9808-0.3584a201.216 201.216 0 0 0 107.3152-37.888l8.6528-6.7584 8.7552 6.8096A202.3424 202.3424 0 0 0 768 499.2c105.216 0 192-78.2336 192-176.8448 0-66.5088-49.5616-131.84-143.872-199.8848l-10.0352-7.2704zM242.9952 192h538.112l12.8 9.8304c60.672 47.7184 89.2928 88.832 89.2928 120.5248 0 54.272-50.7392 100.0448-115.2 100.0448-40.0384 0-76.1856-17.92-97.1264-46.336l-31.0272-42.1376-30.8736 42.1888c-20.8384 28.416-56.9344 46.2848-96.9728 46.2848-40.0384 0-76.1856-17.92-97.1264-46.336l-31.0272-42.1376-30.8736 42.1888c-20.8384 28.416-56.9344 46.2848-96.9728 46.2848-64.4608 0-115.2-45.7216-115.2-100.0448l0.3072-5.6832c3.1744-30.8736 31.8976-69.9392 89.088-114.7904l12.8-9.8816zM230.4 588.8l-0.0512 243.2h294.4512a25.6 25.6 0 0 1 25.6 25.6v25.6a25.6 25.6 0 0 1-25.6 25.6H153.6V588.8a25.6 25.6 0 0 1 25.6-25.6H204.8a25.6 25.6 0 0 1 25.6 25.6z" fill="#FFFFFF" p-id="7115"></path><path d="M614.4 563.2m25.6 0l204.8 0q25.6 0 25.6 25.6l0 25.6q0 25.6-25.6 25.6l-204.8 0q-25.6 0-25.6-25.6l0-25.6q0-25.6 25.6-25.6Z" fill="#0964FF" p-id="7116"></path><path d="M614.4 691.2m25.6 0l204.8 0q25.6 0 25.6 25.6l0 25.6q0 25.6-25.6 25.6l-204.8 0q-25.6 0-25.6-25.6l0-25.6q0-25.6 25.6-25.6Z" fill="#0964FF" p-id="7117"></path><path d="M614.4 819.2m25.6 0l204.8 0q25.6 0 25.6 25.6l0 25.6q0 25.6-25.6 25.6l-204.8 0q-25.6 0-25.6-25.6l0-25.6q0-25.6 25.6-25.6Z" fill="#0964FF" p-id="7118"></path></svg>