<svg t="1617343700927" class="icon" viewBox="0 0 1024 1024" version="1.1" xmlns="http://www.w3.org/2000/svg" p-id="6972" width="400" height="400"><path d="M739.5328 75.3664c50.176 0 91.2384 38.7072 95.0272 87.8592l0.3072 7.424v170.7008h-76.8V170.6496a18.4832 18.4832 0 0 0-14.7968-18.0736l-3.7376-0.4096H170.7008a18.4832 18.4832 0 0 0-18.1248 14.7968l-0.4096 3.6864v682.7008c0 8.9088 6.3488 16.384 14.7968 18.0736l3.6864 0.4096h227.584v76.8H170.6496a95.2832 95.2832 0 0 1-94.976-87.8592l-0.3072-7.424V170.6496c0-50.1248 38.7072-91.1872 87.8592-94.976l7.424-0.3072h568.8832z" fill="#FFFFFF" p-id="6973"></path><path d="M682.6496 398.2336a113.7664 113.7664 0 0 1 56.9344 212.2752l-0.0512 72.1408h125.184c25.088 0 45.5168 20.3776 45.5168 45.568v125.1328h-455.168v-125.184c0-25.088 20.4288-45.5168 45.568-45.5168h125.1328v-72.0896a113.7664 113.7664 0 0 1-56.576-90.4192L568.832 512c0-62.8224 50.944-113.7664 113.7664-113.7664zM227.5328 341.3504H512v76.8H227.5328zM227.5328 568.8832h170.6496v76.8H227.5328z" fill="#FFFFFF" p-id="6974"></path><path d="M512 910.2336h341.3504v51.2H512z" fill="#0964FF" p-id="6975"></path></svg>