<svg t="1617674029806" class="icon" viewBox="0 0 1024 1024" version="1.1" xmlns="http://www.w3.org/2000/svg" p-id="3641" width="400" height="400"><path d="M341.3504 75.3664a209.0496 209.0496 0 0 1 208.7936 198.656l0.256 10.4448v455.0656a132.2496 132.2496 0 0 0 264.2944 8.3968l0.256-8.3968V113.7664h76.8v625.7664a209.0496 209.0496 0 0 1-417.8944 10.4448l-0.256-10.4448V284.4672a132.2496 132.2496 0 0 0-264.2944-8.3968l-0.256 8.3968v625.7664h-76.8V284.4672a209.0496 209.0496 0 0 1 209.1008-209.1008z" fill="#FFFFFF" p-id="3642"></path><path d="M853.3504 284.4672m-113.7664 0a113.7664 113.7664 0 1 0 227.5328 0 113.7664 113.7664 0 1 0-227.5328 0Z" fill="#0964FF" p-id="3643"></path><path d="M170.6496 682.6496m-113.7664 0a113.7664 113.7664 0 1 0 227.5328 0 113.7664 113.7664 0 1 0-227.5328 0Z" fill="#0964FF" p-id="3644"></path></svg>