<svg t="1617674075684" class="icon" viewBox="0 0 1024 1024" version="1.1" xmlns="http://www.w3.org/2000/svg" p-id="3924" width="400" height="400"><path d="M455.0656 117.8112v115.4048a284.5696 284.5696 0 0 0 56.9344 563.2 284.2624 284.2624 0 0 0 278.784-227.5328h115.4048A398.0288 398.0288 0 0 1 512 910.2336 398.2336 398.2336 0 0 1 455.0656 117.76z" fill="#FFFFFF" p-id="3925"></path><path d="M512 113.7664a398.2336 398.2336 0 0 1 398.0288 385.5872l0.2048 12.6464H512V113.7152z m56.8832 61.6448v279.6544h279.7056l-0.1536-1.024a341.7088 341.7088 0 0 0-264.8576-275.8656l-14.6944-2.7648z" fill="#0964FF" p-id="3926"></path></svg>