<svg t="1617674015232" class="icon" viewBox="0 0 1024 1024" version="1.1" xmlns="http://www.w3.org/2000/svg" p-id="3500" width="400" height="400"><path d="M870.4 102.4a51.2 51.2 0 0 1 51.2 51.2v512a51.2 51.2 0 0 1-51.2 51.2h-158.0032l112.9984 112.9984a25.6 25.6 0 0 1 2.9696 32.6656l-2.9696 3.584-36.1984 36.1472a25.6 25.6 0 0 1-36.1984 0l-180.992-180.992a25.7024 25.7024 0 0 1-3.5328-4.352H455.5264a25.7024 25.7024 0 0 1-3.5328 4.352L271.0016 902.144a25.6 25.6 0 0 1-36.1984 0l-36.1984-36.1984a25.6 25.6 0 0 1 0-36.1984L311.552 716.8H153.6a51.2 51.2 0 0 1-51.2-51.2V153.6a51.2 51.2 0 0 1 51.2-51.2h716.8z m-25.6 76.8h-665.6v460.8h665.6v-460.8z" fill="#FFFFFF" p-id="3501"></path><path d="M419.4816 300.3392l144.7936 144.7936 122.88-122.8288 54.272 54.272-177.152 177.152-144.8448-144.7936-112.4352 112.4864-54.3232-54.272z" fill="#0964FF" p-id="3502"></path></svg>