<svg t="1617343670072" class="icon" viewBox="0 0 1024 1024" version="1.1" xmlns="http://www.w3.org/2000/svg" p-id="6690" width="400" height="400"><path d="M716.8 563.2a153.6 153.6 0 0 1 153.6 153.6v204.8H153.6v-204.8a153.6 153.6 0 0 1 153.6-153.6h409.6z m0 76.8H307.2a76.8 76.8 0 0 0-76.4416 69.4272L230.4 716.8v128h563.2V716.8a76.8 76.8 0 0 0-69.4272-76.4416L716.8 640zM512 102.4a204.8 204.8 0 1 1 0 409.6 204.8 204.8 0 0 1 0-409.6z m0 76.8a128 128 0 1 0 0 256 128 128 0 0 0 0-256z" fill="#FFFFFF" p-id="6691"></path><path d="M307.2 716.8h409.6v76.8H307.2z" fill="#0964FF" p-id="6692"></path></svg>